<!-- Source for public/og.png (1200x630). Regenerate with any SVG renderer at
     1200px wide (e.g. @resvg/resvg-js from a Bun script). The lockup is the
     brand logo (dot badge + wordmark outlines), centered. -->
<svg width="1200" height="630" viewBox="0 0 1200 630" xmlns="http://www.w3.org/2000/svg">
  <rect width="1200" height="630" fill="#ffffff"/>
  <g transform="translate(284 251)">
    <circle cx="63.0134" cy="64.0134" r="63.0134" fill="#171717" fill-opacity="0.07"/>
    <circle cx="63.0131" cy="64.0135" r="24.464" fill="#171717"/>
    <path d="M196.25 102H168.958V25.0114H196.475C204.219 25.0114 210.885 26.5527 216.474 29.6352C222.063 32.6927 226.361 37.091 229.368 42.8301C232.401 48.5691 233.917 55.4359 233.917 63.4305C233.917 71.4502 232.401 78.342 229.368 84.1062C226.361 89.8703 222.038 94.2936 216.399 97.3762C210.785 100.459 204.069 102 196.25 102ZM185.235 88.0533H195.573C200.385 88.0533 204.432 87.2012 207.715 85.4971C211.023 83.7678 213.504 81.0988 215.158 77.49C216.838 73.8561 217.677 69.1696 217.677 63.4305C217.677 57.7416 216.838 53.0927 215.158 49.4839C213.504 45.875 211.036 43.2185 207.753 41.5143C204.47 39.8102 200.422 38.9581 195.611 38.9581H185.235V88.0533ZM271.763 103.128C265.923 103.128 260.874 101.887 256.613 99.4061C252.378 96.9 249.107 93.4165 246.802 88.9555C244.496 84.4696 243.343 79.2693 243.343 73.3548C243.343 67.3902 244.496 62.1775 246.802 57.7165C249.107 53.2305 252.378 49.747 256.613 47.2659C260.874 44.7598 265.923 43.5067 271.763 43.5067C277.602 43.5067 282.639 44.7598 286.875 47.2659C291.135 49.747 294.418 53.2305 296.724 57.7165C299.029 62.1775 300.182 67.3902 300.182 73.3548C300.182 79.2693 299.029 84.4696 296.724 88.9555C294.418 93.4165 291.135 96.9 286.875 99.4061C282.639 101.887 277.602 103.128 271.763 103.128ZM271.838 90.7224C274.494 90.7224 276.712 89.9705 278.492 88.4669C280.271 86.9381 281.612 84.858 282.514 82.2266C283.441 79.5951 283.905 76.6003 283.905 73.2421C283.905 69.8838 283.441 66.889 282.514 64.2575C281.612 61.6261 280.271 59.546 278.492 58.0173C276.712 56.4885 274.494 55.7241 271.838 55.7241C269.156 55.7241 266.901 56.4885 265.071 58.0173C263.267 59.546 261.901 61.6261 260.974 64.2575C260.072 66.889 259.62 69.8838 259.62 73.2421C259.62 76.6003 260.072 79.5951 260.974 82.2266C261.901 84.858 263.267 86.9381 265.071 88.4669C266.901 89.9705 269.156 90.7224 271.838 90.7224ZM341.308 44.2586V56.288H306.535V44.2586H341.308ZM314.43 30.4247H330.444V84.2565C330.444 85.7352 330.669 86.888 331.121 87.715C331.572 88.517 332.198 89.0809 333 89.4067C333.827 89.7324 334.78 89.8953 335.857 89.8953C336.609 89.8953 337.361 89.8327 338.113 89.7074C338.865 89.557 339.441 89.4442 339.842 89.3691L342.361 101.286C341.559 101.536 340.431 101.825 338.977 102.15C337.524 102.501 335.757 102.714 333.677 102.789C329.817 102.94 326.434 102.426 323.527 101.248C320.645 100.07 318.402 98.2408 316.798 95.7597C315.194 93.2786 314.405 90.146 314.43 86.3617V30.4247ZM382.791 44.2586V56.288H347.154V44.2586H382.791ZM355.311 102V40.0858C355.311 35.9006 356.126 32.4296 357.755 29.6728C359.409 26.9161 361.664 24.8485 364.521 23.4701C367.378 22.0918 370.624 21.4026 374.258 21.4026C376.714 21.4026 378.957 21.5905 380.986 21.9665C383.042 22.3424 384.57 22.6807 385.573 22.9814L382.716 35.0109C382.089 34.8104 381.312 34.6225 380.385 34.447C379.483 34.2716 378.556 34.1839 377.603 34.1839C375.247 34.1839 373.606 34.7352 372.679 35.8379C371.751 36.9156 371.288 38.4318 371.288 40.3866V102H355.311ZM408.588 25.0114V102H392.574V25.0114H408.588ZM447.506 103.128C441.666 103.128 436.617 101.887 432.356 99.4061C428.121 96.9 424.85 93.4165 422.545 88.9555C420.239 84.4696 419.086 79.2693 419.086 73.3548C419.086 67.3902 420.239 62.1775 422.545 57.7165C424.85 53.2305 428.121 49.747 432.356 47.2659C436.617 44.7598 441.666 43.5067 447.506 43.5067C453.345 43.5067 458.382 44.7598 462.618 47.2659C466.878 49.747 470.161 53.2305 472.467 57.7165C474.772 62.1775 475.925 67.3902 475.925 73.3548C475.925 79.2693 474.772 84.4696 472.467 88.9555C470.161 93.4165 466.878 96.9 462.618 99.4061C458.382 101.887 453.345 103.128 447.506 103.128ZM447.581 90.7224C450.237 90.7224 452.455 89.9705 454.235 88.4669C456.014 86.9381 457.355 84.858 458.257 82.2266C459.184 79.5951 459.648 76.6003 459.648 73.2421C459.648 69.8838 459.184 66.889 458.257 64.2575C457.355 61.6261 456.014 59.546 454.235 58.0173C452.455 56.4885 450.237 55.7241 447.581 55.7241C444.899 55.7241 442.644 56.4885 440.814 58.0173C439.01 59.546 437.644 61.6261 436.717 64.2575C435.815 66.889 435.363 69.8838 435.363 73.2421C435.363 76.6003 435.815 79.5951 436.717 82.2266C437.644 84.858 439.01 86.9381 440.814 88.4669C442.644 89.9705 444.899 90.7224 447.581 90.7224ZM496.281 102L480.568 44.2586H496.77L505.717 83.0536H506.243L515.566 44.2586H531.468L540.941 82.828H541.43L550.226 44.2586H566.391L550.715 102H533.761L523.836 65.686H523.122L513.198 102H496.281ZM584.82 123.653C582.79 123.653 580.886 123.49 579.106 123.164C577.352 122.864 575.898 122.475 574.745 121.999L578.354 110.045C580.234 110.621 581.926 110.934 583.429 110.985C584.958 111.035 586.274 110.684 587.376 109.932C588.504 109.18 589.419 107.902 590.121 106.098L591.06 103.654L570.347 44.2586H587.188L599.143 86.6624H599.744L611.811 44.2586H628.765L606.323 108.24C605.245 111.348 603.779 114.055 601.925 116.36C600.095 118.691 597.777 120.483 594.97 121.736C592.163 123.014 588.78 123.653 584.82 123.653Z" fill="#171717"/>
  </g>
</svg>
